<svg width="15" height="27" viewBox="0 0 15 27" fill="none" xmlns="http://www.w3.org/2000/svg">
<path d="M2.97235 0.534303L14.6198 12.5026C14.7581 12.6451 14.8558 12.7995 14.9129 12.9657C14.971 13.1319 15 13.31 15 13.5C15 13.69 14.971 13.8681 14.9129 14.0343C14.8558 14.2005 14.7581 14.3549 14.6198 14.4974L2.97235 26.5013C2.64977 26.8338 2.24654 27 1.76267 27C1.2788 27 0.864054 26.8219 0.518432 26.4657C0.17281 26.1095 -1.79317e-06 25.6939 -1.75165e-06 25.219C-1.71013e-06 24.7441 0.17281 24.3285 0.518432 23.9723L10.6797 13.5L0.518434 3.0277C0.195852 2.69525 0.0345624 2.28586 0.0345624 1.79953C0.0345624 1.31224 0.207373 0.890502 0.552995 0.534302C0.898617 0.178101 1.30184 7.09818e-07 1.76267 7.50105e-07C2.2235 7.90392e-07 2.62673 0.178101 2.97235 0.534303Z" fill="#EF5F7A"/>
</svg>
