<svg width="231" height="78" viewBox="0 0 231 78" fill="none" xmlns="http://www.w3.org/2000/svg">
<g clip-path="url(#clip0_8_4)">
<path d="M25.1981 63.8341L25.5356 63.9921C26.251 64.3613 27.0151 64.6273 27.8051 64.7821C28.5544 64.9294 29.3252 64.9294 30.0745 64.7821C30.9158 64.6083 31.708 64.2502 32.3943 63.7335C33.5595 62.8556 34.5119 61.7264 35.1808 60.4299C35.6835 59.4962 36.1216 58.5267 36.5453 57.5572C37.4145 55.4178 38.4947 53.3705 39.77 51.4454C40.4341 50.4409 41.2619 49.5548 42.219 48.8241C42.7429 48.4208 43.3443 48.1299 43.9857 47.9694C44.8308 47.7789 45.7165 47.9095 46.4706 48.3357C46.7675 48.4921 47.0468 48.6799 47.3037 48.8959C47.4922 49.0675 47.6479 49.2719 47.7633 49.4992C48.251 50.4357 48.634 51.4232 48.9052 52.4437C49.2931 53.9111 49.4195 55.4354 49.2787 56.9467C49.0912 59.4029 48.2122 61.7559 46.7435 63.7335C45.4875 65.4637 43.835 66.8674 41.9245 67.8271C41.0986 68.2504 40.2261 68.5758 39.3247 68.7967C38.4261 69.0477 37.4996 69.1852 36.5669 69.2061C35.9421 69.2061 35.3101 69.2061 34.6924 69.2061C33.7163 69.1232 32.7526 68.9305 31.8197 68.6315C30.2759 68.1458 28.833 67.3842 27.5609 66.3836C26.6855 65.7032 25.9053 64.9085 25.2412 64.0208C25.2123 63.9793 25.1859 63.9362 25.1622 63.8915L25.1981 63.8341Z" fill="white"/>
<path d="M38.7645 45.1901C38.7994 45.2828 38.8235 45.3792 38.8363 45.4774C38.8794 46.1661 38.8794 46.8569 38.8363 47.5457C38.7028 48.8188 38.3274 50.0546 37.7303 51.1869C37.1293 52.2168 36.3196 53.1097 35.3532 53.8083C34.3102 54.551 33.1848 55.1703 31.9993 55.654C30.1891 56.4579 28.4309 57.3742 26.735 58.3974C25.8459 58.8931 25.1256 59.6434 24.6666 60.552C24.4644 60.9609 24.3564 61.41 24.3506 61.8662C24.3598 62.4837 24.5803 63.0794 24.9754 63.554L25.0401 63.633C25.0401 63.633 25.0401 63.633 25.0401 63.7192C24.9755 63.6806 24.9173 63.6321 24.8677 63.5755C23.9761 62.5289 23.3634 61.2739 23.0866 59.9272C22.9407 59.2352 22.9164 58.5232 23.0148 57.8229C23.202 56.6361 23.6972 55.5193 24.4512 54.5839C25.6059 53.136 27.052 51.9469 28.6956 51.0935C30.1894 50.282 31.6904 49.492 33.1843 48.6948L36.4304 46.9712C37.2298 46.5208 37.9563 45.9518 38.585 45.2834L38.6712 45.1685L38.7645 45.1901Z" fill="white"/>
<path d="M44.7972 45.7215C42.5999 44.8761 40.2507 44.4971 37.8989 44.6086C35.5472 44.7202 33.2444 45.3199 31.137 46.3695C29.0295 47.4192 27.1636 48.8959 25.6577 50.7057C24.1518 52.5155 23.039 54.6189 22.39 56.8821C22.2206 55.4571 22.3008 54.0135 22.627 52.6161C22.9263 51.2048 23.4734 49.8577 24.2429 48.6373C27.2449 43.9979 31.5396 41.8505 37.0265 42.2384C39.9456 42.4502 42.6968 43.6834 44.7972 45.7215V45.7215Z" fill="white"/>
<path d="M53.9612 67.5255V43.6388H60.7624V47.1076H60.985C61.2786 46.4457 61.6577 45.8252 62.1126 45.2619C62.6515 44.6219 63.3295 44.1134 64.0948 43.7753C65.1229 43.352 66.2298 43.1536 67.3409 43.1935C68.0646 43.1991 68.786 43.2737 69.4955 43.4162V50.1743C68.7262 50.0049 67.9418 49.9135 67.1542 49.9013C65.0236 49.9013 63.4317 50.4807 62.3783 51.6393C61.3226 52.7956 60.7983 54.6844 60.7983 57.2914V67.5255H53.9612Z" fill="white"/>
<path d="M84.5988 77.0773C82.741 77.1333 80.888 76.8586 79.1263 76.2658C77.8612 75.8251 76.7018 75.1256 75.7221 74.2118C74.9716 73.5068 74.3473 72.6785 73.8764 71.7628C73.452 70.8483 73.1479 69.8827 72.9715 68.8901H79.6434C79.8236 69.4145 80.0987 69.9014 80.4549 70.3264C80.8592 70.7535 81.3485 71.0911 81.8913 71.3175C82.7185 71.6307 83.6001 71.7748 84.4839 71.7412C86.3464 71.7412 87.7205 71.217 88.6063 70.1684C89.5331 68.989 90.0047 67.5156 89.9349 66.0173V63.4678H89.6189C89.233 64.0461 88.7798 64.5765 88.2687 65.0478C87.5948 65.6602 86.8164 66.1467 85.9706 66.4841C84.8936 66.904 83.7435 67.1043 82.5879 67.0731C80.9828 67.1108 79.3919 66.7636 77.9485 66.0604C76.6554 65.4086 75.5243 64.4762 74.6377 63.3313C73.7457 62.1891 73.0736 60.8911 72.6555 59.5034C71.7841 56.6625 71.7841 53.6256 72.6555 50.7847C73.0703 49.3869 73.7425 48.079 74.6377 46.9281C75.5246 45.7853 76.6558 44.8553 77.9485 44.2062C79.4006 43.4985 81.0018 43.1512 82.6167 43.1935C83.7734 43.1632 84.9243 43.3684 85.9993 43.7968C86.8428 44.1515 87.6255 44.6362 88.319 45.2332C88.8509 45.6864 89.3004 46.2283 89.6476 46.8347H89.9636V43.6388H96.8151V65.9886C96.8311 67.9011 96.3826 69.789 95.508 71.4899C94.5963 73.2066 93.2003 74.6176 91.4934 75.5476C89.3655 76.6433 86.9905 77.1703 84.5988 77.0773V77.0773ZM84.5127 61.6652C85.6329 61.7071 86.7351 61.3734 87.6439 60.7172C88.4743 60.0797 89.119 59.2316 89.5112 58.261C89.9282 57.2659 90.1429 56.1978 90.1429 55.1189C90.1429 54.04 89.9282 52.9719 89.5112 51.9769C89.1128 51.0158 88.4688 50.1762 87.6439 49.5423C86.7351 48.886 85.6329 48.5523 84.5127 48.5943C83.406 48.5542 82.3181 48.8882 81.4245 49.5423C80.5974 50.1758 79.9511 51.0153 79.55 51.9769C78.7173 53.9888 78.7173 56.249 79.55 58.261C79.9448 59.2321 80.5919 60.0801 81.4245 60.7172C82.3181 61.3712 83.406 61.7052 84.5127 61.6652V61.6652Z" fill="white"/>
<path d="M113.621 67.9708C111.747 68.011 109.887 67.6435 108.17 66.8935C106.707 66.2349 105.413 65.2526 104.385 64.0208C103.397 62.8413 102.639 61.4868 102.151 60.0277C101.665 58.5618 101.422 57.0261 101.433 55.4816C101.44 53.9738 101.682 52.4763 102.151 51.0433C102.614 49.5893 103.344 48.2349 104.306 47.0502C105.314 45.8166 106.595 44.8333 108.047 44.1774C109.744 43.4368 111.583 43.0765 113.434 43.1217C115.47 43.0805 117.481 43.5759 119.265 44.5581C120.988 45.5502 122.375 47.0329 123.251 48.8169C124.266 50.9471 124.758 53.2884 124.688 55.6468V57.313H108.306C108.368 58.6955 108.9 60.0153 109.814 61.0547C110.291 61.5838 110.881 61.9997 111.539 62.2718C112.198 62.5439 112.909 62.6654 113.621 62.6275C114.402 62.6595 115.18 62.5146 115.897 62.2038C116.414 61.9649 116.88 61.6284 117.269 61.2127C117.632 60.785 117.921 60.2995 118.124 59.7763H124.436C124.204 60.7708 123.857 61.7348 123.402 62.6491C122.915 63.5462 122.298 64.3665 121.571 65.0837C120.672 65.9617 119.607 66.6526 118.44 67.1161C116.905 67.7142 115.267 68.0046 113.621 67.9708V67.9708ZM108.306 53.2481H118.052C118.073 52.5657 117.956 51.886 117.709 51.2495C117.463 50.6129 117.091 50.0323 116.615 49.5423C115.674 48.7461 114.477 48.3152 113.244 48.3284C112.012 48.3415 110.825 48.7979 109.9 49.6141C108.911 50.5679 108.338 51.8739 108.306 53.2481V53.2481Z" fill="white"/>
<path d="M5.08901 71.375C3.47522 71.3486 1.86513 71.2118 0.27002 70.9656L0.27002 65.1555C1.77102 65.3063 2.95602 65.3781 3.86092 65.3781C5.63485 65.4697 7.38577 64.9444 8.81637 63.8915C10.0469 62.9004 10.6621 61.1289 10.6621 58.577V37.5774H17.5064V58.7134C17.5377 60.9184 17.1071 63.1054 16.2424 65.134C15.414 67.0239 14.0219 68.6117 12.2565 69.6801C10.4562 70.81 8.06707 71.375 5.08901 71.375Z" fill="white"/>
<path d="M191.751 43.1217C193.052 43.0658 194.347 43.3116 195.536 43.8399C196.385 44.2303 197.156 44.7704 197.813 45.4343C198.167 45.7977 198.491 46.1892 198.782 46.6049H199.142V43.5742H205.993V67.4537H199.142V64.3942H198.782C198.491 64.8099 198.167 65.2014 197.813 65.5649C197.156 66.2287 196.385 66.7688 195.536 67.1592C194.347 67.6875 193.052 67.9333 191.751 67.8774C190.148 67.9161 188.561 67.5532 187.134 66.8217C185.843 66.121 184.726 65.1392 183.866 63.949C182.987 62.7434 182.324 61.3949 181.905 59.9631C181.034 57.0219 181.034 53.8911 181.905 50.9499C182.324 49.5181 182.987 48.1695 183.866 46.964C184.728 45.7757 185.845 44.7944 187.134 44.0913C188.568 43.3896 190.155 43.0564 191.751 43.1217V43.1217ZM193.734 48.6661C192.622 48.6222 191.53 48.9733 190.653 49.6572C189.818 50.3435 189.179 51.2377 188.8 52.2498C188.001 54.3302 188.001 56.633 188.8 58.7134C189.179 59.7255 189.818 60.6197 190.653 61.3061C191.547 61.9635 192.627 62.3181 193.737 62.3181C194.847 62.3181 195.928 61.9635 196.822 61.3061C197.657 60.6197 198.296 59.7255 198.675 58.7134C199.474 56.633 199.474 54.3302 198.675 52.2498C198.296 51.2377 197.657 50.3435 196.822 49.6572C195.942 48.9723 194.848 48.6212 193.734 48.6661V48.6661Z" fill="white"/>
<path d="M221.269 67.9061C219.594 67.9583 217.925 67.6827 216.356 67.0946C215.201 66.6452 214.15 65.9632 213.268 65.0909C212.573 64.3909 211.996 63.5834 211.559 62.6993C211.155 61.8005 210.866 60.8547 210.697 59.8841H217.046C217.186 60.4218 217.43 60.9269 217.764 61.3707C218.14 61.8131 218.608 62.1685 219.136 62.4121C219.904 62.7402 220.736 62.8923 221.57 62.8573C222.834 62.8573 223.725 62.606 224.163 62.0961C224.59 61.6941 224.847 61.1443 224.881 60.5592C224.881 59.4819 223.998 58.7565 222.224 58.4046L218.978 57.7726C217.639 57.5167 216.331 57.117 215.078 56.5804C213.923 56.1073 212.909 55.3456 212.133 54.3684C211.359 53.3035 210.969 52.007 211.027 50.6913C211.007 49.3171 211.399 47.9684 212.155 46.8204C212.954 45.6352 214.068 44.6973 215.372 44.1128C216.954 43.4148 218.671 43.0763 220.4 43.1217C221.956 43.0671 223.509 43.3109 224.975 43.8399C226.048 44.2522 227.026 44.8804 227.847 45.6856C228.504 46.328 229.052 47.0726 229.47 47.8904C229.862 48.7162 230.152 49.5869 230.332 50.4831H224.199C223.928 49.784 223.483 49.1659 222.906 48.6876C222.14 48.2243 221.249 48.0109 220.357 48.0772C219.485 47.9895 218.613 48.2474 217.929 48.7954C217.523 49.1665 217.278 49.6821 217.247 50.2317C217.237 50.5095 217.306 50.7843 217.446 51.0245C217.586 51.2647 217.791 51.4605 218.037 51.5891C218.681 51.9314 219.374 52.1736 220.091 52.3073L223.201 52.9393C225.234 53.2843 227.16 54.0928 228.831 55.3021C229.566 55.8789 230.15 56.625 230.534 57.4766C230.918 58.3283 231.09 59.2603 231.036 60.1929C231.052 61.5811 230.662 62.9438 229.916 64.1141C229.096 65.3426 227.939 66.3078 226.583 66.8935C224.907 67.6162 223.093 67.9619 221.269 67.9061V67.9061Z" fill="white"/>
<path fill-rule="evenodd" clip-rule="evenodd" d="M156.991 71.3462C159.718 71.3974 162.415 70.7889 164.856 69.5723C167.16 68.3779 169.057 66.5256 170.307 64.2506C171.724 61.5534 172.414 58.5338 172.31 55.4888V52.9177H156.833V58.3687H165.452C165.282 60.2995 164.389 62.095 162.952 63.396C161.349 64.6969 159.319 65.3548 157.257 65.2417C155.313 65.3037 153.4 64.7342 151.806 63.6186C150.353 62.5568 149.21 61.1262 148.495 59.4747C147.746 57.7958 147.362 55.977 147.368 54.1386C147.359 52.3483 147.729 50.5764 148.452 48.939C149.161 47.3016 150.297 45.8851 151.742 44.8382C153.344 43.7252 155.265 43.1631 157.214 43.2366C158.621 43.1785 160.022 43.4645 161.293 44.0697C162.214 44.5344 163.021 45.1965 163.656 46.0088C164.111 46.5867 164.474 47.231 164.733 47.9192L165.006 48.7307H171.915L171.757 47.8976C171.594 47.1615 171.368 46.4407 171.082 45.7431C170.684 44.7564 170.186 43.8131 169.596 42.9278C168.878 41.8641 168.004 40.9149 167.003 40.1125C165.795 39.1621 164.429 38.4327 162.967 37.958C158.616 36.6608 153.953 36.8837 149.745 38.59C147.713 39.4811 145.901 40.8074 144.438 42.4754C143.052 44.1013 141.983 45.972 141.285 47.991C139.892 52.0424 139.892 56.4431 141.285 60.4945C141.968 62.5111 143.031 64.3784 144.416 65.9958C145.852 67.6694 147.64 69.0058 149.652 69.9099C151.966 70.9117 154.47 71.4017 156.991 71.3462V71.3462ZM162.565 74.894C148.301 78.0612 134.06 67.7122 134.06 53.0542C134.06 39.2076 147.231 32.6865 151.045 30.3094C159.44 25.081 162.536 13.2095 155.964 1.68985C156.848 2.48301 157.65 3.36369 158.356 4.31839C160.819 6.77457 166.005 12.2184 168.482 17.1882C169.113 18.4051 169.547 19.714 169.768 21.0664C170.105 27.6808 169.466 25.2246 168.332 29.5984C164.022 46.253 182.394 51.467 176.605 35.5449C179.298 40.2777 180.641 44.7735 180.641 53.0542C180.641 60.8392 177.05 68.215 171.635 71.7269C171.542 71.7915 171.391 71.892 171.161 72.0285C170.931 72.165 170.637 72.3301 170.371 72.4666C167.891 73.6139 165.272 74.4301 162.579 74.894H162.565Z" fill="white"/>
<path fill-rule="evenodd" clip-rule="evenodd" d="M153.745 1.80477C153.846 1.94122 153.954 2.07767 154.04 2.22131C161.638 15.1486 157.121 22.5171 149.178 28.2841C148.201 18.4666 160.281 19.0483 153.149 3.14776L152.108 0.102676" fill="white"/>
</g>
<defs>
<clipPath id="clip0_8_4">
<rect width="230.73" height="76.9746" fill="white" transform="translate(0.27002 0.102676)"/>
</clipPath>
</defs>
</svg>
