<svg width="19" height="14" viewBox="0 0 19 14" fill="none" xmlns="http://www.w3.org/2000/svg">
<path d="M19 12V14H7V12C7 12 7 8 13 8C19 8 19 12 19 12ZM16 3C16 2.40666 15.8241 1.82664 15.4944 1.33329C15.1648 0.839943 14.6962 0.455426 14.1481 0.228363C13.5999 0.00129986 12.9967 -0.0581102 12.4147 0.0576455C11.8328 0.173401 11.2982 0.459123 10.8787 0.878681C10.4591 1.29824 10.1734 1.83279 10.0576 2.41473C9.94189 2.99667 10.0013 3.59987 10.2284 4.14805C10.4554 4.69623 10.8399 5.16477 11.3333 5.49441C11.8266 5.82405 12.4067 6 13 6C13.7956 6 14.5587 5.68393 15.1213 5.12132C15.6839 4.55871 16 3.79565 16 3ZM8 5H5V2H3V5H0V7H3V10H5V7H8V5Z" fill="white"/>
</svg>
