<svg width="46" height="34" viewBox="0 0 46 34" fill="none" xmlns="http://www.w3.org/2000/svg">
<path d="M35.5455 30.8125C34.7136 30.8125 33.9159 30.4767 33.3277 29.8789C32.7395 29.2811 32.4091 28.4704 32.4091 27.625C32.4091 26.7796 32.7395 25.9689 33.3277 25.3711C33.9159 24.7733 34.7136 24.4375 35.5455 24.4375C36.3773 24.4375 37.175 24.7733 37.7632 25.3711C38.3514 25.9689 38.6818 26.7796 38.6818 27.625C38.6818 28.4704 38.3514 29.2811 37.7632 29.8789C37.175 30.4767 36.3773 30.8125 35.5455 30.8125ZM38.6818 11.6875L42.78 17H33.4545V11.6875M10.4545 30.8125C9.62273 30.8125 8.82498 30.4767 8.2368 29.8789C7.64862 29.2811 7.31818 28.4704 7.31818 27.625C7.31818 26.7796 7.64862 25.9689 8.2368 25.3711C8.82498 24.7733 9.62273 24.4375 10.4545 24.4375C11.2864 24.4375 12.0841 24.7733 12.6723 25.3711C13.2605 25.9689 13.5909 26.7796 13.5909 27.625C13.5909 28.4704 13.2605 29.2811 12.6723 29.8789C12.0841 30.4767 11.2864 30.8125 10.4545 30.8125ZM39.7273 8.5H33.4545V0H4.18182C1.86091 0 0 1.89125 0 4.25V27.625H4.18182C4.18182 29.3158 4.84269 30.9373 6.01906 32.1328C7.19542 33.3284 8.79091 34 10.4545 34C12.1182 34 13.7137 33.3284 14.89 32.1328C16.0664 30.9373 16.7273 29.3158 16.7273 27.625H29.2727C29.2727 29.3158 29.9336 30.9373 31.11 32.1328C32.2863 33.3284 33.8818 34 35.5455 34C37.2091 34 38.8046 33.3284 39.9809 32.1328C41.1573 30.9373 41.8182 29.3158 41.8182 27.625H46V17L39.7273 8.5Z" fill="#3C3C3C"/>
</svg>
