<svg width="36" height="19" viewBox="0 0 36 19" fill="none" xmlns="http://www.w3.org/2000/svg">
<path d="M26.7965 6.14333C25.9165 5.25309 24.7229 4.75296 23.4783 4.75296C22.2337 4.75296 21.0401 5.25309 20.16 6.14333C19.2799 7.03358 18.7855 8.24101 18.7855 9.5C18.7855 10.759 19.2799 11.9664 20.16 12.8567C20.5958 13.2975 21.1131 13.6471 21.6824 13.8857C22.2518 14.1243 22.862 14.247 23.4783 14.247C24.0945 14.247 24.7047 14.1243 25.2741 13.8857C25.8434 13.6471 26.3608 13.2975 26.7965 12.8567C27.2323 12.4159 27.5779 11.8926 27.8138 11.3166C28.0496 10.7407 28.171 10.1234 28.171 9.5C28.171 8.87661 28.0496 8.25932 27.8138 7.68338C27.5779 7.10745 27.2323 6.58414 26.7965 6.14333ZM10.9565 0V19H36V0H10.9565ZM32.8696 12.6667C32.04 12.6667 31.2417 12.9992 30.6626 13.6008C30.0678 14.1867 29.7391 14.9942 29.7391 15.8333H17.2174C17.2174 14.9942 16.8887 14.1867 16.2939 13.6008C15.7148 12.9992 14.9165 12.6667 14.087 12.6667V6.33333C14.9165 6.33333 15.7148 6.00083 16.2939 5.39917C16.8887 4.81333 17.2174 4.00583 17.2174 3.16667H29.7391C29.7391 4.00583 30.0678 4.81333 30.6626 5.39917C31.2417 6.00083 32.04 6.33333 32.8696 6.33333V12.6667ZM7.82609 3.16667H4.69565C3.83478 3.16667 3.13043 2.45417 3.13043 1.58333C3.13043 0.7125 3.83478 0 4.69565 0H7.82609V3.16667ZM7.82609 11.0833H3.13043C2.26957 11.0833 1.56522 10.3708 1.56522 9.5C1.56522 8.62917 2.26957 7.91667 3.13043 7.91667H7.82609V11.0833ZM7.82609 19H1.56522C0.701217 19 0 18.2875 0 17.4167C0 16.5458 0.701217 15.8333 1.56522 15.8333H7.82609V19Z" fill="white"/>
</svg>
