<svg width="35" height="31" viewBox="0 0 35 31" fill="none" xmlns="http://www.w3.org/2000/svg">
<g clip-path="url(#clip0_512_1329)">
<path d="M0 29.5751C0.383559 28.2445 0.770046 26.9154 1.15214 25.5848C1.483 24.4295 1.808 23.2713 2.14764 22.0748C3.33638 22.2929 4.50902 22.508 5.6919 22.7261V30.9941H5.33616C4.04787 30.9941 2.75811 30.9793 1.46982 31C0.752479 31.0118 0.241554 30.7583 0 30.0525C0 29.8933 0 29.7342 0 29.5736V29.5751Z" fill="#3C3C3C"/>
<path d="M17.2354 1.97782e-05C21.8761 -0.0102949 25.4453 4.01537 24.9388 8.5052C24.706 10.5622 23.933 12.413 22.8819 14.1591C21.6243 16.2471 20.0623 18.0861 18.2968 19.7526C17.679 20.3347 17.0817 20.3376 16.4726 19.7585C14.1962 17.591 12.2213 15.1876 10.9023 12.2995C10.1 10.5416 9.60811 8.70855 9.84088 6.74287C10.2405 3.34197 12.8625 0.617426 16.2282 0.107587C16.6073 0.0501196 16.9924 0.0250697 17.2354 1.97782e-05ZM15.4113 7.67266C15.4186 8.76159 16.2999 9.65455 17.373 9.66192C18.4519 9.66929 19.3537 8.75128 19.3464 7.65056C19.3391 6.5631 18.4549 5.66572 17.3847 5.6613C16.3043 5.65688 15.404 6.57488 15.4113 7.67413V7.67266Z" fill="#3C3C3C"/>
<path d="M2.60156 20.4687C2.95877 19.2162 3.29548 18.002 3.65415 16.7937C3.82837 16.2072 4.26609 15.9302 4.85607 15.9273C6.85878 15.917 8.86002 15.9184 10.8627 15.9332C10.9842 15.9332 11.1423 16.0599 11.2199 16.1719C12.3325 17.7883 13.6121 19.2589 15.0057 20.6322C15.4347 21.0551 15.8709 21.4721 16.4624 21.6622C17.5501 22.0129 18.5178 21.7845 19.3493 21.0109C20.8982 19.5669 22.2919 17.9843 23.485 16.2293C23.6417 15.998 23.8086 15.9125 24.0911 15.9155C25.946 15.9302 27.8008 15.9228 29.6571 15.9228C30.5911 15.9228 30.9425 16.1851 31.1972 17.0766C31.4432 17.9401 31.692 18.8021 31.9189 19.6715C31.9468 19.7776 31.8911 19.9632 31.8077 20.0325C29.9572 21.5841 28.098 23.1284 26.2329 24.6638C26.1363 24.7434 25.9621 24.7905 25.8406 24.7684C20.7386 23.8342 15.6396 22.8897 10.5392 21.9481C8.01677 21.4825 5.49436 21.0198 2.97048 20.5556C2.86068 20.535 2.75235 20.507 2.60156 20.4731V20.4687Z" fill="#3C3C3C"/>
<path d="M7.35791 30.9735V23.0342C13.0396 24.0819 18.7036 25.1251 24.416 26.1787C24.3165 26.2745 24.2506 26.3452 24.1774 26.4071C22.4368 27.8791 20.6976 29.3526 18.9496 30.8188C18.8383 30.9116 18.6729 30.9883 18.5324 30.9883C14.8783 30.9971 11.2242 30.9956 7.57019 30.9942C7.50431 30.9942 7.43989 30.9824 7.35791 30.9735Z" fill="#3C3C3C"/>
<path d="M32.4621 21.5518C32.7988 22.7365 33.1179 23.8593 33.4371 24.9821C33.8499 26.435 34.2671 27.8879 34.6741 29.3438C34.9391 30.2942 34.4282 30.9897 33.4517 30.9926C29.4814 30.9985 25.5112 30.9956 21.5409 30.9956C21.497 30.9956 21.4545 30.9882 21.3154 30.9764C25.0529 27.8172 28.7333 24.7051 32.4621 21.5532V21.5518Z" fill="#3C3C3C"/>
</g>
<defs>
<clipPath id="clip0_512_1329">
<rect width="34.7414" height="31" fill="white"/>
</clipPath>
</defs>
</svg>
