<svg width="37" height="34" viewBox="0 0 37 34" fill="none" xmlns="http://www.w3.org/2000/svg">
<path d="M26.5995 33.728C25.777 34.0797 24.8495 34.0874 24.0213 33.7495C23.1931 33.4115 22.5319 32.7556 22.1831 31.926C21.8344 31.0964 21.8268 30.1611 22.1619 29.3258C22.497 28.4905 23.1473 27.8237 23.9699 27.472C24.3772 27.2979 24.8146 27.2063 25.2569 27.2027C25.6993 27.199 26.1381 27.2832 26.5482 27.4505C26.9583 27.6179 27.3317 27.865 27.6471 28.1779C27.9625 28.4908 28.2137 28.8632 28.3863 29.274C28.559 29.6848 28.6497 30.1258 28.6534 30.572C28.657 31.0181 28.5735 31.4606 28.4076 31.8742C28.2417 32.2878 27.9966 32.6644 27.6864 32.9825C27.3762 33.3005 27.0069 33.5539 26.5995 33.728ZM11.159 6.8C13.0301 6.8 14.5303 5.287 14.5303 3.4C14.5303 2.49826 14.1751 1.63346 13.5429 0.995837C12.9106 0.358213 12.0531 0 11.159 0C9.27107 0 7.7877 1.53 7.7877 3.4C7.7877 5.287 9.27107 6.8 11.159 6.8ZM35.4829 24.378L28.9932 27.2C29.364 27.574 29.7011 28.05 29.9371 28.594C30.1731 29.155 30.2743 29.75 30.3417 30.294L36.7977 27.506L35.4829 24.378ZM15.4405 11.526L16.6879 14.603C16.2834 14.45 15.9125 14.246 15.6091 14.042C14.5977 13.379 13.856 12.546 13.3672 11.56L12.1198 8.891C11.7995 8.296 11.4118 7.854 10.8724 7.548C10.3836 7.259 9.86105 7.106 9.32164 7.106C8.78223 7.106 8.27654 7.242 7.7877 7.48C5.42779 9.35 4.83781 12.818 4.83781 12.818L4.26469 15.487C4.11298 16.371 4.0287 17.255 4.0287 18.156V26.588L0 32.079L2.52847 34L7.19772 27.625L7.48428 22.1L10.3162 26.078V34H13.4346V23.698L10.3162 19.261V18.156C10.3162 17.408 10.3162 16.677 10.5016 15.963L11.0916 13.923C11.7321 14.858 12.5075 15.674 13.4346 16.371C14.1932 16.949 16.3171 17.969 18.323 18.462L21.9134 26.86C22.2843 26.486 22.7563 26.146 23.3125 25.908C23.8519 25.67 24.4419 25.568 24.9813 25.5L18.5421 10.2L15.4405 11.526ZM24.2059 17.204L27.5098 25.024L37 20.927L33.713 13.124" fill="#3C3C3C"/>
</svg>
