<svg width="109" height="38" viewBox="0 0 109 38" fill="none" xmlns="http://www.w3.org/2000/svg">
<g clip-path="url(#clip0_344_87)">
<path d="M11.9747 30.7366L12.1338 30.8128C12.4711 30.9909 12.8313 31.1192 13.2038 31.1938C13.557 31.2649 13.9204 31.2649 14.2737 31.1938C14.6703 31.1101 15.0438 30.9373 15.3673 30.6882C15.9167 30.2648 16.3657 29.7202 16.681 29.0949C16.9181 28.6446 17.1246 28.177 17.3244 27.7094C17.7341 26.6776 18.2434 25.6902 18.8446 24.7618C19.1577 24.2774 19.548 23.85 19.9992 23.4976C20.2462 23.3031 20.5297 23.1628 20.8321 23.0854C21.2305 22.9935 21.6481 23.0565 22.0036 23.262C22.1436 23.3375 22.2753 23.4281 22.3964 23.5322C22.4852 23.615 22.5587 23.7136 22.6131 23.8232C22.843 24.2748 23.0236 24.7511 23.1514 25.2433C23.3343 25.951 23.3939 26.6861 23.3275 27.415C23.2391 28.5996 22.8247 29.7344 22.1323 30.6882C21.5401 31.5226 20.7611 32.1996 19.8604 32.6624C19.471 32.8666 19.0596 33.0235 18.6347 33.13C18.211 33.2511 17.7743 33.3174 17.3345 33.3275C17.0399 33.3275 16.742 33.3275 16.4508 33.3275C15.9906 33.2875 15.5363 33.1946 15.0965 33.0504C14.3686 32.8161 13.6884 32.4488 13.0886 31.9662C12.6759 31.6381 12.3081 31.2548 11.995 30.8267C11.9814 30.8067 11.9689 30.7859 11.9578 30.7644L11.9747 30.7366Z" fill="white"/>
<path d="M18.3706 21.7449C18.3871 21.7896 18.3984 21.8361 18.4045 21.8834C18.4248 22.2156 18.4248 22.5488 18.4045 22.881C18.3415 23.4949 18.1646 24.091 17.8831 24.6371C17.5997 25.1338 17.218 25.5644 16.7623 25.9013C16.2706 26.2595 15.74 26.5582 15.1811 26.7915C14.3277 27.1792 13.4988 27.6211 12.6993 28.1146C12.2802 28.3536 11.9405 28.7155 11.7242 29.1537C11.6288 29.3509 11.5779 29.5675 11.5752 29.7875C11.5795 30.0853 11.6835 30.3726 11.8698 30.6015L11.9002 30.6396C11.9002 30.6396 11.9002 30.6396 11.9002 30.6812C11.8698 30.6626 11.8423 30.6392 11.819 30.6119C11.3986 30.1071 11.1098 29.5019 10.9793 28.8523C10.9105 28.5186 10.899 28.1752 10.9454 27.8375C11.0337 27.2651 11.2672 26.7265 11.6226 26.2754C12.167 25.5771 12.8487 25.0036 13.6236 24.592C14.3279 24.2006 15.0355 23.8196 15.7398 23.4352L17.2702 22.6039C17.6471 22.3867 17.9896 22.1122 18.286 21.7899L18.3266 21.7345L18.3706 21.7449Z" fill="white"/>
<path d="M21.2147 22.0013C20.1788 21.5935 19.0712 21.4107 17.9625 21.4645C16.8538 21.5183 15.7681 21.8076 14.7746 22.3138C13.781 22.82 12.9013 23.5322 12.1914 24.4051C11.4814 25.2779 10.9568 26.2923 10.6508 27.3838C10.571 26.6966 10.6088 26.0004 10.7626 25.3264C10.9037 24.6458 11.1616 23.9961 11.5244 23.4075C12.9397 21.17 14.9644 20.1344 17.5512 20.3214C18.9274 20.4236 20.2245 21.0183 21.2147 22.0013Z" fill="white"/>
<path d="M25.5352 32.5169V20.9967H28.7416V22.6697H28.8465C28.9849 22.3504 29.1636 22.0512 29.3781 21.7795C29.6322 21.4708 29.9518 21.2256 30.3126 21.0625C30.7973 20.8584 31.3192 20.7627 31.843 20.782C32.1842 20.7847 32.5243 20.8206 32.8588 20.8893V24.1486C32.4961 24.067 32.1263 24.0229 31.755 24.017C30.7505 24.017 30 24.2964 29.5034 24.8552C29.0057 25.4129 28.7585 26.3238 28.7585 27.5811V32.5169H25.5352Z" fill="white"/>
<path d="M39.9793 37.1236C39.1034 37.1507 38.2298 37.0181 37.3993 36.7323C36.8028 36.5197 36.2562 36.1824 35.7944 35.7416C35.4406 35.4016 35.1463 35.0022 34.9242 34.5605C34.7242 34.1195 34.5808 33.6538 34.4976 33.1751H37.6431C37.728 33.428 37.8577 33.6628 38.0257 33.8678C38.2163 34.0738 38.447 34.2366 38.7029 34.3458C39.0928 34.4968 39.5085 34.5663 39.9252 34.5501C40.8032 34.5501 41.451 34.2973 41.8686 33.7916C42.3056 33.2228 42.5279 32.5122 42.495 31.7896V30.56H42.346C42.1641 30.8389 41.9504 31.0947 41.7095 31.322C41.3918 31.6173 41.0248 31.852 40.626 32.0147C40.1183 32.2172 39.5761 32.3138 39.0313 32.2988C38.2745 32.317 37.5245 32.1495 36.844 31.8104C36.2344 31.496 35.7011 31.0463 35.2831 30.4942C34.8626 29.9433 34.5457 29.3173 34.3486 28.6481C33.9378 27.2779 33.9378 25.8133 34.3486 24.4432C34.5442 23.769 34.8611 23.1382 35.2831 22.5832C35.7013 22.032 36.2346 21.5835 36.844 21.2704C37.5286 20.9292 38.2835 20.7616 39.0448 20.7821C39.5902 20.7674 40.1328 20.8664 40.6396 21.073C41.0372 21.2441 41.4063 21.4778 41.7332 21.7657C41.984 21.9843 42.1959 22.2457 42.3596 22.5381H42.5086V20.9968H45.7387V31.7757C45.7462 32.6981 45.5348 33.6086 45.1225 34.4289C44.6926 35.2569 44.0345 35.9374 43.2298 36.3859C42.2266 36.9143 41.1069 37.1685 39.9793 37.1236ZM39.9387 29.6906C40.4668 29.7109 40.9864 29.5499 41.4149 29.2334C41.8064 28.926 42.1104 28.517 42.2953 28.0488C42.4918 27.5689 42.5931 27.0538 42.5931 26.5335C42.5931 26.0132 42.4918 25.498 42.2953 25.0181C42.1074 24.5546 41.8038 24.1497 41.4149 23.8439C40.9864 23.5274 40.4668 23.3665 39.9387 23.3867C39.417 23.3674 38.9041 23.5285 38.4828 23.8439C38.0928 24.1495 37.7881 24.5544 37.5991 25.0181C37.2065 25.9885 37.2065 27.0785 37.5991 28.0488C37.7852 28.5172 38.0903 28.9262 38.4828 29.2334C38.9041 29.5489 39.417 29.7099 39.9387 29.6906Z" fill="white"/>
<path d="M53.6615 32.7317C52.7782 32.7511 51.9013 32.5739 51.0916 32.2122C50.402 31.8945 49.7918 31.4208 49.3073 30.8267C48.8415 30.2579 48.4843 29.6046 48.2543 28.9009C48.025 28.1939 47.9106 27.4533 47.9157 26.7084C47.9189 25.9812 48.0331 25.259 48.2543 24.5679C48.4723 23.8666 48.8168 23.2134 49.27 22.6421C49.7456 22.0471 50.3494 21.5729 51.0341 21.2566C51.8341 20.8994 52.7008 20.7256 53.5735 20.7474C54.5335 20.7276 55.4816 20.9665 56.3228 21.4402C57.1347 21.9187 57.7889 22.6337 58.202 23.4941C58.6802 24.5215 58.9124 25.6506 58.8791 26.7881V27.5916H51.156C51.1854 28.2584 51.4362 28.8949 51.867 29.3962C52.092 29.6514 52.3699 29.8519 52.6804 29.9832C52.9908 30.1144 53.326 30.173 53.6615 30.1548C54.0298 30.1702 54.3967 30.1003 54.7348 29.9504C54.9785 29.8352 55.1981 29.6729 55.3815 29.4724C55.5527 29.2661 55.6889 29.032 55.7844 28.7797H58.7606C58.6512 29.2593 58.4876 29.7242 58.2731 30.1651C58.0432 30.5978 57.7523 30.9935 57.4097 31.3393C56.9858 31.7628 56.4841 32.096 55.9334 32.3195C55.2099 32.608 54.4379 32.748 53.6615 32.7317ZM51.156 25.6312H55.7506C55.7604 25.3021 55.7056 24.9743 55.5892 24.6673C55.4729 24.3603 55.2975 24.0803 55.0734 23.844C54.6296 23.46 54.0655 23.2521 53.4842 23.2585C52.903 23.2649 52.3433 23.485 51.9076 23.8786C51.441 24.3386 51.1709 24.9685 51.156 25.6312Z" fill="white"/>
<path d="M2.49433 34.3734C1.73351 34.3607 0.974427 34.2947 0.222412 34.176L0.222412 31.3739C0.930058 31.4466 1.48873 31.4812 1.91534 31.4812C2.75166 31.5254 3.57713 31.272 4.25159 30.7642C4.8317 30.2863 5.12176 29.4319 5.12176 28.2011V18.0734H8.34849V28.2669C8.36326 29.3303 8.16027 30.3851 7.75258 31.3635C7.36204 32.2749 6.70571 33.0407 5.87342 33.556C5.0247 34.1009 3.89833 34.3734 2.49433 34.3734Z" fill="white"/>
<path d="M90.4963 20.7474C91.1092 20.7205 91.7199 20.839 92.2806 21.0938C92.6806 21.2821 93.0442 21.5426 93.3539 21.8627C93.5209 22.038 93.6738 22.2268 93.811 22.4273H93.9803V20.9656H97.2104V32.4823H93.9803V31.0068H93.811C93.6738 31.2073 93.5209 31.3961 93.3539 31.5714C93.0442 31.8915 92.6806 32.152 92.2806 32.3403C91.7199 32.5951 91.1092 32.7136 90.4963 32.6867C89.7404 32.7053 88.992 32.5303 88.3192 32.1775C87.7107 31.8396 87.1842 31.3661 86.7786 30.7921C86.3644 30.2106 86.0516 29.5603 85.8543 28.8697C85.4434 27.4512 85.4434 25.9413 85.8543 24.5228C86.0516 23.8323 86.3644 23.1819 86.7786 22.6005C87.1852 22.0274 87.7115 21.5541 88.3192 21.215C88.9956 20.8766 89.7439 20.7159 90.4963 20.7474ZM91.4308 23.4214C90.9066 23.4002 90.392 23.5696 89.9782 23.8994C89.5847 24.2304 89.2834 24.6616 89.1047 25.1497C88.7279 26.1531 88.7279 27.2637 89.1047 28.267C89.2834 28.7551 89.5847 29.1864 89.9782 29.5174C90.3997 29.8345 90.9093 30.0055 91.4325 30.0055C91.9557 30.0055 92.4652 29.8345 92.8867 29.5174C93.2803 29.1864 93.5816 28.7551 93.7603 28.267C94.137 27.2637 94.137 26.1531 93.7603 25.1497C93.5816 24.6616 93.2803 24.2304 92.8867 23.8994C92.4718 23.569 91.956 23.3997 91.4308 23.4214Z" fill="white"/>
<path d="M104.412 32.7005C103.623 32.7257 102.836 32.5927 102.096 32.3091C101.551 32.0924 101.056 31.7635 100.64 31.3428C100.313 31.0052 100.041 30.6157 99.8345 30.1894C99.6443 29.7559 99.5078 29.2997 99.4282 28.8316H102.421C102.487 29.091 102.602 29.3346 102.76 29.5486C102.937 29.762 103.158 29.9333 103.407 30.0508C103.769 30.209 104.161 30.2824 104.554 30.2656C105.15 30.2656 105.57 30.1443 105.777 29.8984C105.978 29.7045 106.099 29.4394 106.115 29.1572C106.115 28.6376 105.699 28.2878 104.863 28.1181L103.332 27.8133C102.701 27.6899 102.084 27.4971 101.494 27.2383C100.949 27.0101 100.471 26.6428 100.105 26.1715C99.7401 25.6579 99.5563 25.0326 99.584 24.3981C99.5741 23.7353 99.7593 23.0849 100.116 22.5312C100.492 21.9596 101.018 21.5073 101.632 21.2254C102.378 20.8887 103.188 20.7255 104.003 20.7474C104.736 20.721 105.469 20.8386 106.159 21.0938C106.666 21.2926 107.126 21.5956 107.514 21.9839C107.823 22.2937 108.082 22.6528 108.279 23.0473C108.464 23.4455 108.6 23.8655 108.685 24.2977H105.794C105.666 23.9605 105.456 23.6624 105.184 23.4317C104.823 23.2083 104.403 23.1054 103.982 23.1373C103.571 23.0951 103.16 23.2194 102.838 23.4837C102.646 23.6627 102.531 23.9114 102.516 24.1764C102.511 24.3104 102.544 24.4429 102.61 24.5588C102.676 24.6746 102.772 24.769 102.889 24.8311C103.192 24.9962 103.519 25.113 103.857 25.1774L105.323 25.4822C106.282 25.6487 107.19 26.0386 107.978 26.6218C108.324 26.9 108.599 27.2598 108.781 27.6705C108.962 28.0813 109.043 28.5307 109.017 28.9805C109.024 29.6501 108.841 30.3073 108.489 30.8717C108.102 31.4642 107.557 31.9297 106.918 32.2121C106.128 32.5607 105.272 32.7274 104.412 32.7005Z" fill="white"/>
<path fill-rule="evenodd" clip-rule="evenodd" d="M74.1087 34.3596C75.3939 34.3843 76.6658 34.0908 77.8162 33.5041C78.9026 32.9281 79.7971 32.0347 80.3861 30.9375C81.0541 29.6367 81.3797 28.1804 81.3307 26.7118V25.4718H74.0342V28.1008H78.0972C78.0171 29.032 77.5963 29.8979 76.9189 30.5253C76.163 31.1527 75.2059 31.47 74.234 31.4155C73.3172 31.4454 72.4156 31.1708 71.6641 30.6327C70.9791 30.1206 70.4402 29.4307 70.1032 28.6342C69.75 27.8245 69.5688 26.9473 69.5716 26.0607C69.5674 25.1973 69.7416 24.3427 70.0829 23.553C70.4169 22.7633 70.9526 22.0802 71.6336 21.5752C72.389 21.0385 73.2945 20.7674 74.2136 20.8028C74.8771 20.7748 75.5372 20.9127 76.1368 21.2046C76.5709 21.4287 76.9512 21.748 77.2508 22.1398C77.4652 22.4185 77.6365 22.7292 77.7586 23.0611L77.8873 23.4525H81.1445L81.07 23.0507C80.993 22.6957 80.8866 22.3481 80.7517 22.0116C80.564 21.5358 80.3291 21.0808 80.0509 20.6539C79.7127 20.1409 79.3006 19.6831 78.8286 19.2961C78.2591 18.8378 77.6149 18.486 76.9257 18.257C74.8744 17.6314 72.676 17.7389 70.6923 18.5618C69.7343 18.9916 68.8801 19.6313 68.1902 20.4357C67.537 21.2198 67.0328 22.122 66.7038 23.0958C66.047 25.0497 66.047 27.1721 66.7038 29.126C67.026 30.0986 67.5271 30.9992 68.18 31.7792C68.8572 32.5864 69.6999 33.2309 70.6483 33.6669C71.7395 34.15 72.9199 34.3863 74.1087 34.3596ZM76.7361 36.0707C70.0118 37.5981 63.2976 32.607 63.2976 25.5377C63.2976 18.8597 69.5073 15.7147 71.3052 14.5682C75.2633 12.0467 76.7226 6.32123 73.6245 0.765503C74.0412 1.14803 74.419 1.57277 74.752 2.03321C75.9133 3.21778 78.3579 5.84324 79.5261 8.2401C79.8232 8.82698 80.0277 9.45823 80.1321 10.1105C80.2913 13.3005 79.9899 12.1159 79.455 14.2253C77.4234 22.2576 86.0845 24.7722 83.3555 17.0932C84.6252 19.3758 85.2583 21.544 85.2583 25.5377C85.2583 29.2923 83.5654 32.8495 81.0125 34.5432C80.9684 34.5744 80.8973 34.6229 80.789 34.6887C80.6806 34.7545 80.5418 34.8341 80.4165 34.9C79.2475 35.4533 78.0123 35.8469 76.7429 36.0707H76.7361Z" fill="white"/>
<path fill-rule="evenodd" clip-rule="evenodd" d="M72.5783 0.820889C72.6257 0.886699 72.6765 0.952509 72.7171 1.02178C76.2994 7.25638 74.1696 10.8101 70.4249 13.5914C69.9644 8.8566 75.6594 9.13716 72.2973 1.4686L71.8063 0" fill="white"/>
</g>
<defs>
<clipPath id="clip0_344_87">
<rect width="108.778" height="37.1236" fill="white" transform="translate(0.222412)"/>
</clipPath>
</defs>
</svg>
