<svg width="46" height="31" viewBox="0 0 46 31" fill="none" xmlns="http://www.w3.org/2000/svg">
<g clip-path="url(#clip0_505_1305)">
<path d="M22.9709 30.9946C26.0544 30.9946 29.1369 30.9946 32.2204 30.9946C35.6243 30.9946 39.0282 31.0011 42.432 30.9924C44.6627 30.987 45.988 29.6377 45.9945 27.3929C45.9966 26.4735 45.9945 25.5552 45.9945 24.6358C45.9945 17.6458 45.9913 10.6546 45.9977 3.66451C45.9977 2.81336 45.8509 2.01851 45.3302 1.32546C44.5609 0.301044 43.5024 0 42.2745 0C29.4251 0.0119118 16.5756 0.00649736 3.72513 0.00758026C3.58263 0.00758026 3.44014 0.00541447 3.29764 0.0119118C1.32517 0.0963776 0.00840335 1.44566 0.00626052 3.44685C-0.00338218 11.4819 -0.00445359 19.5181 0.0180461 27.5532C0.0191175 28.0935 0.143401 28.6794 0.375898 29.1634C1.01982 30.5084 2.17587 31.0043 3.61692 31.0011C10.069 30.9881 16.5199 30.9957 22.972 30.9957L22.9709 30.9946Z" fill="#3C3C3C"/>
<path d="M11.4985 19.8884H5.05823C5.03252 19.9198 5.00145 19.9426 4.98966 19.974C4.8793 20.2772 4.82359 20.8046 4.65324 20.8446C4.15396 20.9638 3.60432 20.9258 3.08469 20.8652C2.96255 20.8511 2.79434 20.5035 2.79112 20.3064C2.76755 18.6853 2.63684 17.0469 2.82434 15.4475C2.96148 14.2801 3.44576 13.1247 3.93753 12.0396C4.27074 11.3043 5.04002 11 5.86715 10.999C7.45391 10.9979 9.0396 10.9827 10.6264 11.0044C11.7792 11.0206 12.5238 11.5989 12.8935 12.7067C13.1485 13.4734 13.3949 14.2444 13.6306 15.0176C13.6874 15.2028 13.712 15.4053 13.7131 15.5991C13.7195 17.113 13.7195 18.6258 13.7152 20.1397C13.7131 20.8067 13.5567 20.9594 12.8945 20.9724C12.841 20.9735 12.7874 20.9724 12.7338 20.9724C11.6324 20.9757 11.6281 20.9724 11.4996 19.8874L11.4985 19.8884ZM11.4888 15.4009C11.2478 14.6981 11.0485 14.0668 10.8064 13.4517C10.7624 13.3391 10.5471 13.2308 10.4099 13.2297C8.96674 13.2135 7.52355 13.2146 6.08036 13.2276C5.94857 13.2286 5.73536 13.3109 5.69893 13.4084C5.45572 14.0506 5.25001 14.7079 5.01859 15.4009H11.4899H11.4888ZM11.5103 16.5596C10.9049 16.5705 10.4431 17.0664 10.4624 17.6847C10.4806 18.2706 10.9553 18.7362 11.5328 18.7373C12.1242 18.7373 12.6245 18.2294 12.6181 17.6349C12.6117 17.035 12.1103 16.5499 11.5092 16.5607L11.5103 16.5596ZM6.04286 17.6274C6.03322 17.0209 5.53608 16.5445 4.93073 16.5607C4.36074 16.5759 3.87861 17.0653 3.87325 17.636C3.86682 18.2219 4.3811 18.7395 4.96609 18.7384C5.55751 18.7362 6.0525 18.2262 6.04286 17.6284V17.6274Z" fill="white"/>
<path d="M16.8468 14.9211C17.4415 14.9211 17.9408 15.4301 17.93 16.0235C17.9193 16.617 17.4008 17.1183 16.8158 17.1021C16.249 17.0858 15.7669 16.592 15.7594 16.0203C15.7519 15.4236 16.249 14.9211 16.8458 14.9222L16.8468 14.9211Z" fill="white"/>
<path d="M22.1482 17.2148L21.9746 16.7524H20.4918L20.3182 17.2256C20.2507 17.4097 20.1918 17.5342 20.1436 17.5992C20.0954 17.6642 20.0171 17.6956 19.9068 17.6956C19.8136 17.6956 19.7321 17.6609 19.6604 17.5927C19.5886 17.5245 19.5532 17.4465 19.5532 17.3588C19.5532 17.309 19.5618 17.257 19.5779 17.2028C19.5939 17.1487 19.6218 17.0751 19.6604 16.9787L20.5936 14.5844C20.6203 14.5162 20.6525 14.4328 20.6889 14.3364C20.7264 14.24 20.7661 14.1599 20.8089 14.096C20.8518 14.0321 20.9064 13.9812 20.975 13.9412C21.0436 13.9022 21.1293 13.8827 21.23 13.8827C21.3307 13.8827 21.4186 13.9022 21.4871 13.9412C21.5557 13.9802 21.6114 14.031 21.6543 14.0939C21.696 14.1556 21.7325 14.2227 21.7614 14.2942C21.7903 14.3657 21.8278 14.461 21.8718 14.5801L22.8242 16.9592C22.8992 17.14 22.9357 17.2721 22.9357 17.3544C22.9357 17.4367 22.9003 17.518 22.8296 17.5894C22.7589 17.6609 22.6742 17.6966 22.5746 17.6966C22.5167 17.6966 22.4664 17.6858 22.4257 17.6652C22.3839 17.6447 22.3496 17.6154 22.3207 17.5797C22.2918 17.544 22.2628 17.4887 22.2296 17.414C22.1975 17.3393 22.1696 17.2732 22.146 17.2169L22.1482 17.2148ZM20.6857 16.1914H21.7753L21.2257 14.67L20.6857 16.1914Z" fill="white"/>
<path d="M25.0367 17.6328H23.9225C23.7617 17.6328 23.6471 17.596 23.5775 17.5234C23.5089 17.4509 23.4746 17.3339 23.4746 17.1747V14.4036C23.4746 14.2412 23.51 14.1242 23.5807 14.0528C23.6514 13.9813 23.765 13.9456 23.9225 13.9456H25.1042C25.2778 13.9456 25.4289 13.9564 25.5574 13.978C25.686 13.9997 25.7996 14.0419 25.9003 14.1037C25.986 14.1556 26.0631 14.2217 26.1296 14.3007C26.196 14.3798 26.2464 14.4686 26.2817 14.565C26.3171 14.6613 26.3342 14.7631 26.3342 14.8703C26.3342 15.2396 26.1521 15.5093 25.7867 15.6804C26.2656 15.8341 26.5056 16.1352 26.5056 16.5802C26.5056 16.786 26.4531 16.9722 26.3492 17.1368C26.2453 17.3014 26.1039 17.4238 25.926 17.5029C25.8146 17.5494 25.6871 17.583 25.5424 17.6025C25.3978 17.622 25.2296 17.6317 25.0378 17.6317L25.0367 17.6328ZM24.2128 14.5076V15.4605H24.8899C25.0742 15.4605 25.2167 15.4432 25.3164 15.4075C25.4171 15.3717 25.4931 15.3057 25.5467 15.206C25.5885 15.1357 25.6089 15.0566 25.6089 14.97C25.6089 14.7837 25.5435 14.6603 25.4128 14.5985C25.2821 14.5379 25.0817 14.5065 24.8128 14.5065H24.2128V14.5076ZM24.981 15.9966H24.2128V17.073H25.0067C25.506 17.073 25.7556 16.891 25.7556 16.5272C25.7556 16.3409 25.6914 16.2066 25.5617 16.1222C25.4321 16.0388 25.2392 15.9966 24.9821 15.9966H24.981Z" fill="white"/>
<path d="M30.2513 16.4687C30.2513 16.5856 30.2224 16.7134 30.1656 16.8499C30.1088 16.9863 30.0188 17.1206 29.8956 17.2527C29.7724 17.3837 29.616 17.4909 29.4253 17.5732C29.2346 17.6555 29.0128 17.6967 28.7589 17.6967C28.5671 17.6967 28.3914 17.6783 28.2339 17.6414C28.0764 17.6046 27.9328 17.5472 27.8042 17.4693C27.6757 17.3913 27.5578 17.2884 27.4496 17.1617C27.3532 17.0459 27.2717 16.917 27.2032 16.773C27.1357 16.63 27.0842 16.4763 27.05 16.3138C27.0157 16.1514 26.9985 15.9781 26.9985 15.7962C26.9985 15.4995 27.0414 15.2342 27.1271 14.9992C27.2128 14.7642 27.335 14.5639 27.4946 14.3971C27.6542 14.2303 27.8407 14.1036 28.0539 14.0159C28.2682 13.9293 28.4953 13.8849 28.7374 13.8849C29.0331 13.8849 29.2956 13.9444 29.526 14.0636C29.7563 14.1827 29.9331 14.33 30.0563 14.5054C30.1796 14.6808 30.2406 14.8465 30.2406 15.0024C30.2406 15.088 30.2106 15.1638 30.1506 15.2288C30.0906 15.2937 30.0188 15.3273 29.9342 15.3273C29.8399 15.3273 29.7692 15.3046 29.721 15.2591C29.6728 15.2136 29.6214 15.1356 29.5635 15.0252C29.4671 14.8422 29.3546 14.7057 29.2239 14.6148C29.0931 14.5238 28.9335 14.4794 28.7428 14.4794C28.4396 14.4794 28.1974 14.5963 28.0174 14.8292C27.8375 15.062 27.7475 15.3934 27.7475 15.8222C27.7475 16.1092 27.7871 16.3474 27.8664 16.538C27.9457 16.7286 28.0592 16.8704 28.2049 16.9646C28.3507 17.0589 28.5221 17.1054 28.7171 17.1054C28.9292 17.1054 29.1092 17.0524 29.256 16.9462C29.4028 16.8401 29.5131 16.6831 29.5881 16.4773C29.6192 16.3799 29.6589 16.3008 29.7049 16.2402C29.751 16.1785 29.826 16.1481 29.9288 16.1481C30.0167 16.1481 30.0917 16.1795 30.1549 16.2413C30.2181 16.303 30.2492 16.381 30.2492 16.473L30.2513 16.4687Z" fill="white"/>
<path d="M33.0348 16.5964H32.2484C32.1295 16.5964 32.0384 16.5683 31.9763 16.5119C31.9141 16.4556 31.8831 16.3831 31.8831 16.2943C31.8831 16.2055 31.9131 16.1308 31.9741 16.0745C32.0352 16.0181 32.1263 15.99 32.2495 15.99H33.0359C33.1591 15.99 33.2502 16.0181 33.3113 16.0745C33.3712 16.1308 33.4023 16.2044 33.4023 16.2943C33.4023 16.3842 33.3723 16.4556 33.3123 16.5119C33.2523 16.5683 33.1602 16.5964 33.0359 16.5964H33.0348Z" fill="white"/>
<path d="M36.1997 17.2884V15.0002C35.7786 15.3273 35.4947 15.4908 35.349 15.4908C35.2793 15.4908 35.2172 15.4626 35.1636 15.4063C35.11 15.35 35.0833 15.285 35.0833 15.2114C35.0833 15.1258 35.11 15.063 35.1625 15.023C35.2161 14.9829 35.3093 14.9309 35.4432 14.867C35.6436 14.7717 35.8043 14.671 35.9243 14.5649C36.0443 14.4599 36.1514 14.3407 36.2436 14.2108C36.3368 14.0798 36.3968 13.9996 36.4247 13.9693C36.4525 13.939 36.5061 13.9238 36.5843 13.9238C36.6722 13.9238 36.7429 13.9585 36.7954 14.0267C36.8489 14.0949 36.8747 14.1902 36.8747 14.3104V17.1898C36.8747 17.5266 36.7611 17.6955 36.5339 17.6955C36.4322 17.6955 36.3518 17.6609 36.2897 17.5927C36.2286 17.5245 36.1975 17.4227 36.1975 17.2884H36.1997Z" fill="white"/>
<path d="M38.9264 17.0393H40.2249C40.3546 17.0393 40.4531 17.0664 40.5206 17.1194C40.5881 17.1736 40.6224 17.2461 40.6224 17.3382C40.6224 17.4205 40.5956 17.4898 40.5421 17.5472C40.4885 17.6046 40.406 17.6327 40.2967 17.6327H38.4657C38.3414 17.6327 38.2439 17.5981 38.1742 17.5288C38.1046 17.4595 38.0703 17.3772 38.0703 17.284C38.0703 17.2234 38.0928 17.1433 38.1378 17.0436C38.1828 16.944 38.231 16.866 38.2846 16.8086C38.5053 16.5769 38.7046 16.3787 38.8814 16.2141C39.0592 16.0484 39.1857 15.9402 39.2617 15.8882C39.3978 15.7907 39.5114 15.6933 39.6014 15.5947C39.6914 15.4962 39.761 15.3965 39.8081 15.2926C39.8553 15.1886 39.8789 15.089 39.8789 14.9894C39.8789 14.8822 39.8531 14.7858 39.8028 14.7013C39.7524 14.6169 39.6839 14.5508 39.596 14.5042C39.5092 14.4577 39.4139 14.4339 39.311 14.4339C39.0935 14.4339 38.9232 14.5302 38.7989 14.723C38.7828 14.7479 38.7549 14.8172 38.7153 14.9287C38.6757 15.0403 38.6328 15.1269 38.5835 15.1875C38.5342 15.2482 38.4624 15.2785 38.3682 15.2785C38.2857 15.2785 38.216 15.2514 38.1614 15.1951C38.1067 15.1399 38.0789 15.0641 38.0789 14.9688C38.0789 14.8529 38.1046 14.7327 38.156 14.6071C38.2075 14.4815 38.2846 14.3678 38.3864 14.2649C38.4882 14.1631 38.6178 14.0797 38.7742 14.0169C38.9307 13.9541 39.1149 13.9227 39.3249 13.9227C39.5789 13.9227 39.7953 13.9628 39.9742 14.0429C40.0899 14.0971 40.1928 14.1707 40.2806 14.2638C40.3685 14.357 40.4371 14.4663 40.4863 14.5898C40.5356 14.7132 40.5592 14.841 40.5592 14.9731C40.5592 15.1811 40.5078 15.3706 40.406 15.5406C40.3042 15.7106 40.2003 15.8438 40.0942 15.9402C39.9881 16.0365 39.8103 16.1881 39.5606 16.3939C39.311 16.5996 39.1396 16.7599 39.0474 16.8747C39.0078 16.9202 38.9671 16.9743 38.9253 17.0382L38.9264 17.0393Z" fill="white"/>
<path d="M42.2126 15.4073C42.3648 15.4073 42.4966 15.3619 42.6069 15.272C42.7173 15.1821 42.7719 15.0511 42.7719 14.8821C42.7719 14.7533 42.728 14.6417 42.6401 14.5486C42.5523 14.4555 42.4333 14.4089 42.2844 14.4089C42.1837 14.4089 42.1001 14.423 42.0348 14.4512C41.9694 14.4793 41.9169 14.5172 41.8794 14.5638C41.8408 14.6103 41.8055 14.671 41.7712 14.7446C41.7369 14.8183 41.7058 14.8876 41.678 14.9536C41.6609 14.9894 41.6319 15.0164 41.588 15.037C41.5451 15.0576 41.4948 15.0673 41.4391 15.0673C41.3726 15.0673 41.3116 15.0402 41.2559 14.9861C41.2001 14.932 41.1723 14.8594 41.1723 14.7684C41.1723 14.6775 41.198 14.5898 41.2505 14.4934C41.303 14.397 41.3791 14.305 41.4798 14.2183C41.5805 14.1317 41.7048 14.0613 41.8548 14.0083C42.0037 13.9552 42.1708 13.9292 42.3551 13.9292C42.5158 13.9292 42.6626 13.9519 42.7955 13.9963C42.9283 14.0407 43.043 14.1046 43.1415 14.1891C43.239 14.2725 43.313 14.3699 43.3633 14.4804C43.4137 14.5908 43.4383 14.71 43.4383 14.8377C43.4383 15.0056 43.4019 15.1496 43.3301 15.2687C43.2583 15.3889 43.1544 15.5059 43.0205 15.6196C43.1501 15.69 43.2583 15.7701 43.3473 15.8611C43.4362 15.952 43.5026 16.0517 43.5476 16.161C43.5926 16.2704 43.6151 16.3895 43.6151 16.5173C43.6151 16.67 43.5851 16.8173 43.524 16.9602C43.464 17.1032 43.374 17.2299 43.2562 17.3414C43.1383 17.4529 42.999 17.5396 42.8373 17.6035C42.6755 17.6663 42.4966 17.6977 42.3016 17.6977C42.1066 17.6977 41.9244 17.6619 41.7669 17.5894C41.6094 17.5168 41.4798 17.4269 41.378 17.3187C41.2762 17.2104 41.1991 17.0988 41.1466 16.983C41.0941 16.8671 41.0684 16.7718 41.0684 16.696C41.0684 16.5985 41.0994 16.5206 41.1616 16.461C41.2237 16.4014 41.3009 16.3722 41.3941 16.3722C41.4401 16.3722 41.4851 16.3863 41.528 16.4134C41.5709 16.4415 41.5998 16.474 41.6126 16.513C41.6984 16.7458 41.7916 16.9191 41.8901 17.0317C41.9887 17.1443 42.128 17.2017 42.3069 17.2017C42.4098 17.2017 42.5083 17.1757 42.6037 17.1248C42.6991 17.0739 42.7783 16.9981 42.8405 16.8974C42.9026 16.7967 42.9337 16.6808 42.9337 16.5476C42.9337 16.3516 42.8801 16.1979 42.774 16.0863C42.668 15.9748 42.5201 15.9196 42.3316 15.9196C42.2983 15.9196 42.2469 15.9228 42.1773 15.9293C42.1076 15.9358 42.0626 15.939 42.0433 15.939C41.9523 15.939 41.8816 15.9163 41.8323 15.8697C41.783 15.8232 41.7573 15.7593 41.7573 15.677C41.7573 15.5947 41.7873 15.5319 41.8473 15.4821C41.9073 15.4323 41.9962 15.4084 42.1141 15.4084H42.2158L42.2126 15.4073Z" fill="white"/>
</g>
<defs>
<clipPath id="clip0_505_1305">
<rect width="46" height="31" fill="white"/>
</clipPath>
</defs>
</svg>
