<svg width="7" height="11" viewBox="0 0 7 11" fill="none" xmlns="http://www.w3.org/2000/svg">
<path d="M6.7619 0.213005C6.68692 0.145485 6.59786 0.0919159 6.4998 0.055365C6.40175 0.0188142 6.29663 0 6.19047 0C6.08431 0 5.97919 0.0188142 5.88113 0.055365C5.78307 0.0919159 5.69401 0.145485 5.61904 0.213005L0.188827 5.09101C0.128969 5.14467 0.0814807 5.2084 0.0490793 5.27857C0.0166779 5.34874 0 5.42396 0 5.49992C0 5.57589 0.0166779 5.65111 0.0490793 5.72127C0.0814807 5.79144 0.128969 5.85518 0.188827 5.90884L5.61904 10.7868C5.93542 11.0711 6.44551 11.0711 6.7619 10.7868C7.07828 10.5026 7.07828 10.0444 6.7619 9.7602L2.02257 5.50282L6.76835 1.23965C7.07828 0.955435 7.07828 0.497217 6.7619 0.213005Z" fill="#272727"/>
</svg>
