<svg width="7" height="11" viewBox="0 0 7 11" fill="none" xmlns="http://www.w3.org/2000/svg">
<path d="M0.238102 10.787C0.313075 10.8545 0.402139 10.9081 0.500195 10.9446C0.59825 10.9812 0.70337 11 0.809532 11C0.915694 11 1.02081 10.9812 1.11887 10.9446C1.21692 10.9081 1.30599 10.8545 1.38096 10.787L6.81117 5.90899C6.87103 5.85533 6.91852 5.7916 6.95092 5.72143C6.98332 5.65126 7 5.57604 7 5.50008C7 5.42411 6.98332 5.34889 6.95092 5.27873C6.91852 5.20856 6.87103 5.14482 6.81117 5.09116L1.38096 0.213159C1.06458 -0.0710521 0.554489 -0.0710522 0.238103 0.213159C-0.0782829 0.497371 -0.0782829 0.95559 0.238103 1.2398L4.97743 5.49718L0.231645 9.76035C-0.0782837 10.0446 -0.0782837 10.5028 0.238102 10.787Z" fill="#272727"/>
</svg>
